# xmcd CD database file
#
# Track frame offsets:
#	150
#	10682
#	21367
#	34484
#	46717
#	60494
#	72490
#	82635
#	94161
#	106019
#	114623
#	124998
#	134624
#	146557
#	157209
#	166738
#	181910
#	194597
#	209087
#	221949
#	236745
#	248022
#	262803
#	272861
#	285393
#	313836
#	322941
#
# Disc length: 4431 seconds
#
# Revision: 3
# Processed by: cddbd v1.5.2PL0 Copyright (c) Steve Scherf et al.
# Submitted via: CDex 1.70beta2
#
DISCID=8f114d1b
DTITLE=Greenhorns - Zlatá era 1967 - 1974 [CD3)
DYEAR=2007
DGENRE=Country
TTITLE0=Blues líného spřežení
TTITLE1=Už tě vlak přiváží
TTITLE2=Vlak má zelenou
TTITLE3=Michalův song
TTITLE4=Bída s nouzí
TTITLE5=Hromskej den
TTITLE6=Hej Joe
TTITLE7=Rok 1849
TTITLE8=Jižní vítr
TTITLE9=Sněžnej muž
TTITLE10=Oči pálí a silnice je jak klín černej
TTITLE11=Honzův song
TTITLE12=Cizinec
TTITLE13=Duel
TTITLE14=Rychlík
TTITLE15=Ještě je čas
TTITLE16=Bilá kytka
TTITLE17=Jarní zpráva
TTITLE18=Louise
TTITLE19=Balada o Ira Hayesovi
TTITLE20=Zpívám písně větru z hor
TTITLE21=Odvolejte kněze
TTITLE22=Já jedu dál
TTITLE23=Den se chýlí
TTITLE24=Feleena z El Pasa
TTITLE25=Jižní vlak
TTITLE26=Banjo z Mlžných hor
EXTD=YEAR: 2007
EXTT0=
EXTT1=
EXTT2=
EXTT3=
EXTT4=
EXTT5=
EXTT6=
EXTT7=
EXTT8=
EXTT9=
EXTT10=
EXTT11=
EXTT12=
EXTT13=
EXTT14=
EXTT15=
EXTT16=
EXTT17=
EXTT18=
EXTT19=
EXTT20=
EXTT21=
EXTT22=
EXTT23=
EXTT24=
EXTT25=
EXTT26=
PLAYORDER=
